{"title":"6 Guns-AC3-DVDRip 2010 TBS","uid":6063363,"size":1483247285,"categoryP":"video","categoryS":"movies","magnet":"?xt=urn:btih:20fd73956fb6fb7d2ceaef41a6cb0bbe5102fd99&amp;dn=6+Guns-AC3-DVDRip+2010+TBS&amp;tr=udp%3A%2F%2Ftracker.openbittorrent.com%3A80&amp;tr=udp%3A%2F%2Fopen.demonii.com%3A1337&amp;tr=udp%3A%2F%2Ftracker.coppersurfer.tk%3A6969&amp;tr=udp%3A%2F%2Fexodus.desync.com%3A6969","seeders":0,"leechers":0,"uploader":"FatFreddy30","files":-1,"time":1293217468,"description":"Five brutal killers. One bounty hunter. They are all after the same thing: revenge.\n &lt;a href=&quot;\nhttp://www.imdb.com/title/tt1558576/&quot; rel=&quot;nofollow&quot; target=&quot;_NEW&quot;&gt;\nhttp://www.imdb.com/title/tt1558576/&lt;/a&gt;\n\nSubs (srt) : Dutch\n\nEen jongedame besluit om hulp in te schakelen van een premiejager. Maar niet om hem het werk te laten doen, ze wil alles van hem leren. Op deze manier kan ze zelf op jacht naar de mannen die haar familie hebben vermoord en haar langverwachte wraak nemen.\n &lt;a href=&quot;\nhttp://www.moviemeter.nl/film/63522&quot; rel=&quot;nofollow&quot; target=&quot;_NEW&quot;&gt;\nhttp://www.moviemeter.nl/film/63522&lt;/a&gt;\n\nOndertitels (srt) : Nederlands.\n\nGeneral\nComplete name                    : 6 Guns-AC3-DVDRip 2010 TBS\\6 Guns-AC3-DVDRip 2010 TBS.avi\nFormat                           : AVI\nFormat/Info                      : Audio Video Interleave\nFile size                        : 1.38 GiB\nDuration                         : 1h 35mn\nOverall bit rate                 : 2 069 Kbps\nWriting application              : VirtualDubMod 1.5.4.1 (build 2178/release)\nWriting library                  : VirtualDubMod build 2178/release\nSource                           : 6.Guns.2010.NTSC.DVDR-SADPANDA\n\nVideo\nID                               : 0\nFormat                           : MPEG-4 Visual\nFormat profile                   : Simple@L3\nFormat settings, BVOP            : No\nFormat settings, QPel            : No\nFormat settings, GMC             : No warppoints\nFormat settings, Matrix          : Default (H.263)\nCodec ID                         : XVID\nCodec ID/Hint                    : XviD\nDuration                         : 1h 35mn\nBit rate                         : 1 611 Kbps\nWidth                            : 720 pixels\nHeight                           : 400 pixels\nDisplay aspect ratio             : 16:9\nFrame rate                       : 23.976 fps\nResolution                       : 8 bits\nColorimetry                      : 4:2:0\nScan type                        : Progressive\nBits/(Pixel*Frame)               : 0.233\nStream size                      : 1.08 GiB (78%)\nWriting library                  : XviD 1.1.2 (UTC 2006-11-01)\n\nAudio\nID                               : 1\nFormat                           : AC-3\nFormat/Info                      : Audio Coding 3\nCodec ID                         : 2000\nDuration                         : 1h 35mn\nBit rate mode                    : Constant\nBit rate                         : 448 Kbps\nChannel(s)                       : 6 channels\nChannel positions                : Front: L C R, Surround: L R, LFE\nSampling rate                    : 48.0 KHz\nStream size                      : 306 MiB (22%)\nAlignment                        : Split accross interleaves\nInterleave, duration             : 42 ms (1.00 video frame)\nInterleave, preload duration     : 500 ms\n\nThanks to Bradje for the source.\n\nBlackbeard  TBS.\n\nEnjoy..","torrent":{"xt":"urn:btih:20fd73956fb6fb7d2ceaef41a6cb0bbe5102fd99","amp;dn":"6+Guns-AC3-DVDRip+2010+TBS","amp;tr":["udp%3A%2F%2Ftracker.openbittorrent.com%3A80","udp%3A%2F%2Fopen.demonii.com%3A1337","udp%3A%2F%2Ftracker.coppersurfer.tk%3A6969","udp%3A%2F%2Fexodus.desync.com%3A6969"],"infoHash":"20fd73956fb6fb7d2ceaef41a6cb0bbe5102fd99","infoHashBuffer":{"type":"Buffer","data":[32,253,115,149,111,182,251,125,44,234,239,65,166,203,11,190,81,2,253,153]},"announce":[],"urlList":[]}}